<svg width="407" height="209" viewBox="0 0 407 209" fill="none" xmlns="http://www.w3.org/2000/svg">
<path opacity="0.7" d="M404.571 98.154L319.344 3.154C317.526 1.14 314.988 0 312.298 0H255.48C251.749 0 248.359 2.204 246.825 5.624C245.31 9.063 245.935 13.072 248.435 15.846L327.961 104.5L248.435 193.135C245.935 195.928 245.291 199.937 246.825 203.357C248.359 206.796 251.749 209 255.48 209H312.298C314.988 209 317.526 207.841 319.344 205.865L404.571 110.865C407.81 107.255 407.81 101.745 404.571 98.154Z" fill="#273A3A"/>
<path opacity="0.7" d="M281.571 98.154L196.344 3.154C194.526 1.14 191.988 0 189.298 0H132.48C128.749 0 125.359 2.204 123.825 5.624C122.31 9.063 122.935 13.072 125.435 15.846L204.961 104.5L125.435 193.135C122.935 195.928 122.291 199.937 123.825 203.357C125.359 206.796 128.749 209 132.48 209H189.298C191.988 209 194.526 207.841 196.344 205.865L281.571 110.865C284.81 107.255 284.81 101.745 281.571 98.154Z" fill="#273A3A"/>
<path opacity="0.7" d="M158.571 98.154L73.3439 3.154C71.5257 1.14 68.9878 0 66.2984 0H9.48033C5.74928 0 2.35913 2.204 0.825042 5.624C-0.690107 9.063 -0.0651084 13.072 2.43489 15.846L81.9613 104.5L2.43489 193.135C-0.0651084 195.928 -0.709047 199.937 0.825042 203.357C2.35913 206.796 5.74928 209 9.48033 209H66.2984C68.9878 209 71.5257 207.841 73.3439 205.865L158.571 110.865C161.81 107.255 161.81 101.745 158.571 98.154Z" fill="#273A3A"/>
</svg>
