<svg width="20" height="20" viewBox="0 0 20 20" fill="none" xmlns="http://www.w3.org/2000/svg">
<path d="M6.32675 13.4059V7.97602H5.0715V6.58455H8.05885V13.4059H6.32675Z" fill="#D6D4AF"/>
<path d="M14.5685 8.34577C14.5685 8.93933 14.2474 9.46478 13.7122 9.75676C14.4614 10.0681 14.9286 10.7201 14.9286 11.4791C14.9286 12.7051 13.8387 13.4836 12.1358 13.4836C10.4329 13.4836 9.3431 12.7148 9.3431 11.5083C9.3431 10.7298 9.84909 10.0681 10.6373 9.75676C10.0632 9.43559 9.6934 8.89074 9.6934 8.29718C9.6934 7.20723 10.6471 6.51643 12.1261 6.51643C13.6246 6.51643 14.5685 7.22675 14.5685 8.34577ZM10.9778 11.3332C10.9778 11.9073 11.3866 12.2284 12.1358 12.2284C12.8851 12.2284 13.3035 11.9171 13.3035 11.3332C13.3035 10.7689 12.8851 10.4476 12.1358 10.4476C11.3865 10.4476 10.9778 10.7688 10.9778 11.3332ZM11.153 8.44307C11.153 8.92972 11.5033 9.20206 12.1358 9.20206C12.7683 9.20206 13.1186 8.92966 13.1186 8.44307C13.1186 7.93721 12.7683 7.65496 12.1358 7.65496C11.5033 7.65496 11.153 7.93721 11.153 8.44307Z" fill="#D6D4AF"/>
<path d="M17.8107 7.3546C18.0987 8.2045 18.2448 9.09345 18.2448 10.0001C18.2448 14.5462 14.5462 18.2448 10 18.2448C5.45385 18.2448 1.75521 14.5462 1.75521 10.0001C1.75521 5.45386 5.45379 1.75539 9.99997 1.75539C10.9067 1.75539 11.7957 1.90135 12.6455 2.18944V0.354679C11.7871 0.119382 10.9006 0 10 0C4.48603 0 0 4.48603 0 10.0001C0 15.5142 4.48603 20.0002 10 20.0002C15.514 20.0002 20 15.5142 20 10.0001C20 9.09959 19.8807 8.21301 19.6454 7.3546H17.8107Z" fill="#D6D4AF"/>
<path d="M17.3118 2.68266V0.765188H15.9329V2.68266H14.027V4.06135H15.9329V5.97876H17.3118V4.06135H19.2291V2.68266H17.3118Z" fill="#D6D4AF"/>
</svg>
