<svg width="238" height="54" viewBox="0 0 238 54" fill="none" xmlns="http://www.w3.org/2000/svg">
<path d="M30.186 53.5C28.566 53.5 26.964 53.032 25.38 52.096C23.832 51.196 21.852 49.792 19.44 47.884C17.64 46.444 16.092 45.274 14.796 44.374C13.536 43.51 12.15 42.772 10.638 42.16C9.162 41.548 7.65 41.242 6.102 41.242C5.562 41.242 5.148 41.26 4.86 41.296L12.906 3.874C10.494 4.846 8.622 6.34 7.29 8.356C5.994 10.336 5.346 12.766 5.346 15.646C5.346 16.978 5.472 17.914 5.724 18.454C5.976 18.958 6.102 19.246 6.102 19.318C4.158 19.318 2.7 18.922 1.728 18.13C0.792 17.302 0.324 15.952 0.324 14.08C0.324 11.776 1.26 9.544 3.132 7.384C5.04 5.188 7.47 3.424 10.422 2.092C13.374 0.723999 16.326 0.0399995 19.278 0.0399995C19.782 0.0399995 20.502 0.075999 21.438 0.147998L13.122 38.92C14.13 39.172 15.156 39.532 16.2 40C17.28 40.504 18.576 41.17 20.088 41.998C22.428 43.258 24.426 44.212 26.082 44.86C27.738 45.544 29.466 45.886 31.266 45.886C32.886 45.886 34.398 45.598 35.802 45.022C35.514 47.65 34.866 49.72 33.858 51.232C32.886 52.744 31.662 53.5 30.186 53.5ZM25.8069 40.324C24.0789 40.324 22.6749 39.784 21.5949 38.704C20.5509 37.588 20.0289 35.95 20.0289 33.79C20.0289 32.926 20.1729 31.774 20.4609 30.334L24.1329 13H31.9089L28.0209 31.36C27.9129 31.792 27.8589 32.242 27.8589 32.71C27.8589 34.294 28.3989 35.086 29.4789 35.086C30.4869 35.086 31.3509 34.672 32.0709 33.844C32.7909 32.98 33.3669 31.81 33.7989 30.334L37.4709 13H45.2469L41.3589 31.36C41.2509 31.828 41.1969 32.278 41.1969 32.71C41.1969 34.294 41.9709 35.086 43.5189 35.086C44.8869 35.086 46.3629 34.6 47.9469 33.628C49.5669 32.656 50.9709 31.45 52.1589 30.01L49.0269 13H56.6409L58.7469 24.664C60.3669 22.936 61.6269 21.316 62.5269 19.804C63.4269 18.292 63.8769 17.05 63.8769 16.078C63.8769 15.754 63.8589 15.538 63.8229 15.43C63.3189 15.502 63.0129 15.538 62.9049 15.538C62.0049 15.538 61.3569 15.268 60.9609 14.728C60.5649 14.152 60.3669 13.414 60.3669 12.514C60.3669 11.722 60.6549 11.11 61.2309 10.678C61.8069 10.21 62.5269 9.976 63.3909 9.976C64.5429 9.976 65.4429 10.426 66.0909 11.326C66.7389 12.226 67.0629 13.378 67.0629 14.782C67.0629 16.51 66.4509 18.382 65.2269 20.398C64.0389 22.378 62.0769 24.79 59.3409 27.634L59.8269 30.334C59.8629 30.514 59.9709 31.09 60.1509 32.062C60.3669 32.998 60.7089 33.736 61.1769 34.276C61.6449 34.816 62.2569 35.086 63.0129 35.086C64.0569 35.086 65.0289 34.654 65.9289 33.79C66.8289 32.89 67.4769 31.738 67.8729 30.334H70.1409C68.8089 34.222 67.1169 36.868 65.0649 38.272C63.0489 39.64 61.0329 40.324 59.0169 40.324C57.3249 40.324 56.0109 39.766 55.0749 38.65C54.1749 37.534 53.4009 35.68 52.7529 33.088C48.9369 37.912 44.7069 40.324 40.0629 40.324C38.5149 40.324 37.1649 39.856 36.0129 38.92C34.8609 37.984 34.1409 36.724 33.8529 35.14C32.5929 37.156 31.2969 38.524 29.9649 39.244C28.6329 39.964 27.2469 40.324 25.8069 40.324ZM75.4831 40.324C72.8551 40.324 70.8031 39.64 69.3271 38.272C67.8511 36.868 67.1131 34.69 67.1131 31.738C67.1131 29.254 67.5991 26.518 68.5711 23.53C69.5431 20.542 71.1271 17.968 73.3231 15.808C75.5191 13.612 78.3091 12.514 81.6931 12.514C85.6531 12.514 87.6331 14.242 87.6331 17.698C87.6331 19.714 87.0571 21.568 85.9051 23.26C84.7531 24.952 83.2231 26.32 81.3151 27.364C79.4071 28.372 77.3731 28.948 75.2131 29.092C75.1411 29.884 75.1051 30.424 75.1051 30.712C75.1051 33.7 76.2211 35.194 78.4531 35.194C79.4611 35.194 80.5411 34.924 81.6931 34.384C82.8451 33.844 83.8891 33.16 84.8251 32.332C83.8531 37.66 80.7391 40.324 75.4831 40.324ZM75.5911 26.5C76.9591 26.464 78.2371 26.014 79.4251 25.15C80.6491 24.286 81.6211 23.188 82.3411 21.856C83.0971 20.488 83.4751 19.066 83.4751 17.59C83.4751 16.114 83.0251 15.376 82.1251 15.376C80.8651 15.376 79.6051 16.528 78.3451 18.832C77.1211 21.1 76.2031 23.656 75.5911 26.5Z" fill="white"/>
<path d="M95.3665 40.324C92.7025 40.324 90.6325 39.64 89.1565 38.272C87.6805 36.868 86.9425 34.69 86.9425 31.738C86.9425 29.254 87.4285 26.518 88.4005 23.53C89.4085 20.542 90.9925 17.968 93.1525 15.808C95.3485 13.612 98.1205 12.514 101.469 12.514C103.629 12.514 105.159 12.982 106.059 13.918C106.995 14.854 107.463 16.042 107.463 17.482C107.463 18.742 107.193 19.714 106.653 20.398C106.113 21.082 105.429 21.424 104.601 21.424C103.989 21.424 103.359 21.208 102.711 20.776C103.143 19.588 103.359 18.526 103.359 17.59C103.359 16.906 103.233 16.366 102.981 15.97C102.729 15.574 102.351 15.376 101.847 15.376C100.767 15.376 99.6865 16.258 98.6065 18.022C97.5265 19.786 96.6445 21.928 95.9605 24.448C95.2765 26.968 94.9345 29.236 94.9345 31.252C94.9345 33.016 95.2405 34.222 95.8525 34.87C96.4645 35.482 97.4545 35.788 98.8225 35.788C100.767 35.788 102.423 35.338 103.791 34.438C105.195 33.538 106.725 32.17 108.381 30.334H110.217C106.221 36.994 101.271 40.324 95.3665 40.324ZM114.849 40.324C112.797 40.324 111.087 39.622 109.719 38.218C108.351 36.814 107.667 34.618 107.667 31.63C107.667 28.966 108.189 26.176 109.233 23.26C110.313 20.308 111.897 17.824 113.985 15.808C116.109 13.756 118.629 12.73 121.545 12.73C123.021 12.73 124.119 12.982 124.839 13.486C125.559 13.99 125.919 14.656 125.919 15.484V15.862L126.513 13H134.289L130.401 31.36C130.257 31.9 130.185 32.476 130.185 33.088C130.185 34.636 130.923 35.41 132.399 35.41C133.407 35.41 134.271 34.942 134.991 34.006C135.747 33.07 136.341 31.846 136.773 30.334H139.041C137.709 34.222 136.053 36.868 134.073 38.272C132.129 39.64 130.167 40.324 128.187 40.324C126.675 40.324 125.451 39.91 124.515 39.082C123.615 38.218 123.075 36.976 122.895 35.356C121.851 36.832 120.681 38.038 119.385 38.974C118.125 39.874 116.613 40.324 114.849 40.324ZM118.359 35.086C119.259 35.086 120.141 34.672 121.005 33.844C121.905 32.98 122.517 31.81 122.841 30.334L125.433 18.13C125.433 17.662 125.253 17.212 124.893 16.78C124.533 16.312 123.975 16.078 123.219 16.078C121.779 16.078 120.483 16.924 119.331 18.616C118.179 20.272 117.279 22.288 116.631 24.664C115.983 27.004 115.659 29.074 115.659 30.874C115.659 32.674 115.911 33.826 116.415 34.33C116.955 34.834 117.603 35.086 118.359 35.086ZM142.949 40.324C141.221 40.324 139.763 40 138.575 39.352C137.387 38.668 136.505 37.804 135.929 36.76C135.353 35.68 135.065 34.564 135.065 33.412C135.065 32.224 135.353 31.198 135.929 30.334C136.469 29.434 137.135 28.786 137.927 28.39C139.331 25.87 140.555 23.332 141.599 20.776C142.643 18.184 143.633 15.394 144.569 12.406L152.561 11.326C152.741 15.934 153.047 20.92 153.479 26.284C153.659 28.444 153.749 30.01 153.749 30.982C153.749 31.81 153.677 32.494 153.533 33.034C155.225 32.062 156.521 31.162 157.421 30.334H159.689C157.385 32.998 154.631 35.248 151.427 37.084C150.383 38.2 149.087 39.028 147.539 39.568C146.027 40.072 144.497 40.324 142.949 40.324ZM141.221 36.058C142.553 36.058 143.669 35.662 144.569 34.87C145.469 34.078 145.919 32.8 145.919 31.036C145.919 29.956 145.811 28.444 145.595 26.5C145.235 22.396 145.001 19.642 144.893 18.238C144.029 21.082 142.571 24.484 140.519 28.444C141.347 28.876 141.761 29.506 141.761 30.334C141.761 31.018 141.527 31.63 141.059 32.17C140.627 32.71 140.069 32.98 139.385 32.98C138.629 32.98 138.143 32.746 137.927 32.278C137.927 33.574 138.179 34.528 138.683 35.14C139.223 35.752 140.069 36.058 141.221 36.058ZM166.43 10.084C165.242 10.084 164.234 9.67 163.406 8.842C162.578 8.014 162.164 7.006 162.164 5.818C162.164 4.63 162.578 3.622 163.406 2.794C164.234 1.93 165.242 1.498 166.43 1.498C167.618 1.498 168.626 1.93 169.454 2.794C170.318 3.622 170.75 4.63 170.75 5.818C170.75 7.006 170.318 8.014 169.454 8.842C168.626 9.67 167.618 10.084 166.43 10.084ZM162.758 40.324C161.03 40.324 159.626 39.784 158.546 38.704C157.502 37.624 156.98 36.004 156.98 33.844C156.98 32.944 157.124 31.774 157.412 30.334L161.084 13H168.86L164.972 31.36C164.828 31.9 164.756 32.476 164.756 33.088C164.756 33.808 164.918 34.33 165.242 34.654C165.602 34.942 166.178 35.086 166.97 35.086C168.014 35.086 168.986 34.654 169.886 33.79C170.786 32.89 171.434 31.738 171.83 30.334H174.098C172.766 34.222 171.056 36.868 168.968 38.272C166.88 39.64 164.81 40.324 162.758 40.324ZM191.303 40.324C189.107 40.324 187.487 39.748 186.443 38.596C185.435 37.408 184.931 35.95 184.931 34.222C184.931 33.466 185.021 32.62 185.201 31.684C185.381 30.712 185.561 29.776 185.741 28.876C185.957 27.976 186.101 27.4 186.173 27.148C186.461 25.888 186.731 24.646 186.983 23.422C187.235 22.198 187.361 21.208 187.361 20.452C187.361 18.616 186.713 17.698 185.417 17.698C184.481 17.698 183.653 18.166 182.933 19.102C182.213 20.002 181.637 21.19 181.205 22.666L177.533 40H169.757L175.481 13H183.257L182.663 15.808C184.463 13.792 186.569 12.784 188.981 12.784C190.817 12.784 192.275 13.288 193.355 14.296C194.435 15.304 194.975 16.834 194.975 18.886C194.975 19.93 194.849 21.1 194.597 22.396C194.345 23.656 193.985 25.204 193.517 27.04C193.229 28.156 192.959 29.254 192.707 30.334C192.491 31.378 192.383 32.206 192.383 32.818C192.383 33.538 192.545 34.096 192.869 34.492C193.193 34.888 193.751 35.086 194.543 35.086C195.623 35.086 196.487 34.708 197.135 33.952C197.783 33.16 198.431 31.954 199.079 30.334H201.347C200.015 34.294 198.467 36.958 196.703 38.326C194.975 39.658 193.175 40.324 191.303 40.324ZM228.34 40.324C225.46 40.324 223.48 39.64 222.4 38.272C221.356 36.904 220.834 35.194 220.834 33.142C220.834 31.63 221.23 30.406 222.022 29.47C222.814 28.498 223.714 28.012 224.722 28.012C226.594 28.012 227.53 28.768 227.53 30.28C227.53 30.928 227.278 31.504 226.774 32.008C226.27 32.476 225.658 32.71 224.938 32.71C224.182 32.71 223.696 32.476 223.48 32.008C223.48 33.304 223.732 34.312 224.236 35.032C224.776 35.716 225.568 36.058 226.612 36.058C227.836 36.058 228.7 35.698 229.204 34.978C229.744 34.222 230.014 32.908 230.014 31.036C230.014 29.956 229.906 28.588 229.69 26.932C229.33 23.476 229.042 19.948 228.826 16.348C226.27 20.272 223.246 22.756 219.754 23.8C219.538 27.112 218.836 30.01 217.648 32.494C216.46 34.978 214.93 36.886 213.058 38.218C211.222 39.55 209.188 40.216 206.956 40.216C204.292 40.216 202.186 39.532 200.638 38.164C199.09 36.796 198.316 34.636 198.316 31.684C198.316 29.2 198.802 26.482 199.774 23.53C200.746 20.542 202.33 17.968 204.526 15.808C206.722 13.612 209.53 12.514 212.95 12.514C217.522 12.514 219.826 15.34 219.862 20.992C222.526 20.848 225.46 17.986 228.664 12.406L236.656 11.326C236.836 15.934 237.142 20.92 237.574 26.284C237.754 28.444 237.844 30.01 237.844 30.982C237.844 34.222 236.908 36.598 235.036 38.11C233.164 39.586 230.932 40.324 228.34 40.324ZM209.116 35.356C210.448 35.356 211.69 34.294 212.842 32.17C213.994 30.01 214.786 27.346 215.218 24.178C214.354 23.854 213.922 23.044 213.922 21.748C213.922 20.344 214.426 19.408 215.434 18.94C215.362 17.788 215.164 16.978 214.84 16.51C214.552 16.042 214.066 15.808 213.382 15.808C212.194 15.808 211.06 16.672 209.98 18.4C208.9 20.092 208.018 22.162 207.334 24.61C206.686 27.022 206.362 29.146 206.362 30.982C206.362 32.71 206.56 33.88 206.956 34.492C207.352 35.068 208.072 35.356 209.116 35.356Z" fill="#FDBF50"/>
</svg>
