<svg width="20" height="20" viewBox="0 0 20 20" fill="none" xmlns="http://www.w3.org/2000/svg">
<path d="M10 0C4.46969 0 0 4.46836 0 10C0 15.5303 4.46836 20 10 20C15.5303 20 20 15.5317 20 10C20 4.46965 15.5317 0 10 0ZM10 18.8281C5.13215 18.8281 1.17188 14.8679 1.17188 10C1.17188 5.13215 5.13215 1.17188 10 1.17188C14.8679 1.17188 18.8281 5.13215 18.8281 10C18.8281 14.8679 14.8679 18.8281 10 18.8281Z" fill="#FDBF50"/>
<path d="M14.1374 4.63629C13.2201 5.22989 12.337 5.23098 11.4192 4.63705C11.3196 4.57185 10.4179 4 9.44443 4H5.55555C5.24874 4 5 4.24422 5 4.54545V8.90909C5 9.21033 5.24874 9.45455 5.55555 9.45455H7.22221C7.43266 9.45455 7.62499 9.33782 7.71914 9.15302L8.12114 8.36364H10.241C9.79891 9.23291 9.31265 9.98298 8.87228 10.6622C7.84114 12.2528 6.95059 13.6264 7.22781 15.5317C7.26692 15.8004 7.50129 16 7.77777 16H12.2222C12.5598 16 12.82 15.7061 12.7722 15.3774C12.4459 13.1351 13.48 11.4125 14.9551 8.03305C14.9847 7.96516 15 7.89207 15 7.81818V5.09091C15 4.66011 14.5089 4.39596 14.1374 4.63629ZM13.8889 7.70604C12.5339 10.798 11.4863 12.6511 11.6096 14.9091H8.28865C8.26373 13.6325 8.92728 12.6089 9.80957 11.248C10.3961 10.3433 11.0608 9.31789 11.6217 8.03302C11.7785 7.67385 11.5099 7.27273 11.1111 7.27273H7.77777C7.56732 7.27273 7.37499 7.38945 7.28084 7.57425L6.87885 8.36364H6.11111V5.09091H9.44443C9.98357 5.09091 10.6087 5.41905 10.8029 5.54476C11.9263 6.28007 12.9428 6.31135 13.8889 5.96767V7.70604Z" fill="#FDBF50"/>
</svg>
