<svg width="20" height="20" viewBox="0 0 20 20" fill="none" xmlns="http://www.w3.org/2000/svg">
<path d="M18.75 5.31412H14.795C15.0788 5.10718 15.3225 4.90158 15.4925 4.71734C16.5 3.63459 16.5 1.87228 15.4925 0.789533C14.5138 -0.26251 12.8063 -0.263845 11.8263 0.789533C11.285 1.37029 9.84625 3.73472 10.045 5.31412H9.955C10.1525 3.73472 8.715 1.37029 8.17375 0.789533C7.19375 -0.263845 5.48625 -0.26251 4.5075 0.789533C3.5 1.87228 3.5 3.63459 4.50625 4.71734C4.6775 4.90158 4.92125 5.10718 5.205 5.31412H1.25C0.56125 5.31412 0 5.91357 0 6.6492V9.9869C0 10.3554 0.28 10.6544 0.625 10.6544H1.25V18.6649C1.25 19.4005 1.81125 20 2.5 20H17.5C18.1887 20 18.75 19.4005 18.75 18.6649V10.6544H19.375C19.72 10.6544 20 10.3554 20 9.9869V6.6492C20 5.91357 19.4387 5.31412 18.75 5.31412ZM5.39375 1.73076C5.6475 1.45841 5.98375 1.30888 6.34125 1.30888C6.6975 1.30888 7.03375 1.45841 7.2875 1.73076C8.13 2.63595 8.9675 4.94831 8.67625 5.27006C8.67625 5.27006 8.62375 5.31412 8.445 5.31412C7.58125 5.31412 5.9325 4.35553 5.39375 3.77611C4.87 3.2127 4.87 2.29417 5.39375 1.73076ZM9.375 18.6649H2.5V10.6544H9.375V18.6649ZM9.375 9.31936H1.25V6.6492H8.445H9.375V9.31936ZM12.7125 1.73076C13.22 1.18739 14.1 1.18872 14.6063 1.73076C15.13 2.29417 15.13 3.2127 14.6063 3.77611C14.0675 4.35553 12.4188 5.31412 11.555 5.31412C11.3763 5.31412 11.3237 5.2714 11.3225 5.27006C11.0325 4.94831 11.87 2.63595 12.7125 1.73076ZM17.5 18.6649H10.625V10.6544H17.5V18.6649ZM18.75 9.31936H10.625V6.6492H11.555H18.75V9.31936Z" fill="#FDBF50"/>
</svg>
