<svg width="25" height="20" viewBox="0 0 25 20" fill="none" xmlns="http://www.w3.org/2000/svg">
<path d="M22.3959 0H4.68751C3.25103 0 2.08335 1.18001 2.08335 2.63155V17.3683C2.08335 17.6589 2.3167 17.8947 2.6042 17.8947C2.89171 17.8947 3.12501 17.6589 3.12501 17.3683V2.6316C3.12501 1.76106 3.82603 1.05266 4.68751 1.05266H22.3959C23.2574 1.05266 23.9584 1.76106 23.9584 2.6316V17.3684C23.9584 18.2389 23.2574 18.9473 22.3959 18.9473H2.60416C2.31666 18.9473 2.08331 19.1831 2.08331 19.4737C2.08331 19.7642 2.31666 20 2.60416 20H22.3958C23.8323 20 25 18.82 25 17.3684V2.6316C25 1.18001 23.8323 0 22.3959 0Z" fill="#FDBF50"/>
<path d="M4.68751 18.9473H2.60416C1.74268 18.9473 1.04165 18.2389 1.04165 17.3683V5.78948C1.04165 4.91894 1.74268 4.21054 2.60416 4.21054C2.89166 4.21054 3.12501 3.97474 3.12501 3.68421C3.12501 3.39369 2.89166 3.15788 2.60416 3.15788C1.16773 3.15788 0 4.33789 0 5.78948V17.3684C0 18.82 1.16773 20 2.60416 20H4.68751C4.97501 20 5.20836 19.7641 5.20836 19.4736C5.20836 19.1831 4.97501 18.9473 4.68751 18.9473Z" fill="#FDBF50"/>
<path d="M13.0209 9.47365H4.68751C4.40001 9.47365 4.16666 9.70945 4.16666 9.99998V16.3157C4.16666 16.6063 4.40001 16.8421 4.68751 16.8421H13.0209C13.3084 16.8421 13.5417 16.6063 13.5417 16.3157V9.99998C13.5417 9.70945 13.3084 9.47365 13.0209 9.47365ZM12.5 15.7894H5.20836V10.5263H12.5V15.7894Z" fill="#FDBF50"/>
<path d="M22.3959 9.47365H15.1042C14.8167 9.47365 14.5833 9.70945 14.5833 9.99998C14.5833 10.2905 14.8167 10.5263 15.1042 10.5263H22.3958C22.6833 10.5263 22.9167 10.2905 22.9167 9.99998C22.9167 9.70945 22.6834 9.47365 22.3959 9.47365Z" fill="#FDBF50"/>
<path d="M22.3959 15.7894H15.1042C14.8167 15.7894 14.5833 16.0252 14.5833 16.3157C14.5833 16.6063 14.8167 16.8421 15.1042 16.8421H22.3958C22.6833 16.8421 22.9167 16.6063 22.9167 16.3157C22.9167 16.0252 22.6834 15.7894 22.3959 15.7894Z" fill="#FDBF50"/>
<path d="M22.3959 3.15788H4.68751C4.40001 3.15788 4.16666 3.39369 4.16666 3.68421C4.16666 3.97474 4.40001 4.21054 4.68751 4.21054H22.3959C22.6834 4.21054 22.9167 3.97474 22.9167 3.68421C22.9167 3.39369 22.6834 3.15788 22.3959 3.15788Z" fill="#FDBF50"/>
</svg>
